PathFileType	4	(X/Y/Z)	Patient5_TMGait_0pt45_1_left_05.trc.trc
DataRate	CameraRate	NumFrames	NumMarkers	Units	OrigDataRate	OrigDataStartFrame	OrigNumFrames
57.851239669421	57.851239669421	7	32	mm	57.851239669421	71	       141
Frame#	Time	R.ASIS			L.ASIS			Chest			R.Shoulder			Neck			L.Shoulder			L.Elbow			L.Wrist			R.Elbow			R.Wrist			L.Thigh.Superior			L.Thigh.Lateral			L.Thigh.Inferior			L.Patella			L.Shank.Superior			L.Shank.Lateral			L.Shank.Inferior			L.Heel			L.Midfoot.Lateral			L.Midfoot.Superior			L.Toe			R.Thigh.Superior			R.Thigh.Lateral			R.Thigh.Inferior			R.Patella			R.Shank.Superior			R.Shank.Lateral			R.Shank.Inferior			R.Heel			R.Midfoot.Lateral			R.Midfoot.Superior			R.Toe			
		X1	Y1	Z1	X2	Y2	Z2	X3	Y3	Z3	X4	Y4	Z4	X5	Y5	Z5	X6	Y6	Z6	X7	Y7	Z7	X8	Y8	Z8	X9	Y9	Z9	X10	Y10	Z10	X11	Y11	Z11	X12	Y12	Z12	X13	Y13	Z13	X14	Y14	Z14	X15	Y15	Z15	X16	Y16	Z16	X17	Y17	Z17	X18	Y18	Z18	X19	Y19	Z19	X20	Y20	Z20	X21	Y21	Z21	X22	Y22	Z22	X23	Y23	Z23	X24	Y24	Z24	X25	Y25	Z25	X26	Y26	Z26	X27	Y27	Z27	X28	Y28	Z28	X29	Y29	Z29	X30	Y30	Z30	X31	Y31	Z31	X32	Y32	Z32	

71	8.010000000000	908.250037933476	1020.722239914539	522.081934135232	927.797827353367	963.255389842952	274.021744364330	986.785363351119	1442.728418188748	409.658051432950	850.970083185372	1511.955694535955	546.584207960092	875.976831560783	1569.303404342908	363.467465349752	983.960537350851	1510.263679606411	208.569952086302	977.452609450692	1182.670851330873	78.668875301752	1128.969063002389	941.970760069277	115.314090660913	722.695223394736	1195.299687037274	658.032839230100	936.719231993527	999.459989398276	653.641214775292	924.649562821344	737.177851529676	285.208576907923	840.725320191222	674.401191306371	246.810077167149	900.398172130483	609.997018853165	312.831861830605	881.960137780044	497.104661782478	322.237430542434	827.141651534978	401.595573499540	348.144987171845	753.962070472802	334.837817293953	274.102175919395	786.026659325824	281.742965888187	363.465638664958	636.644247352130	53.236821817227	376.692031736487	724.492689487615	27.934813596642	316.814546003862	822.928724177248	89.146871976994	358.682957726950	929.154974623931	44.056247165870	364.482497703895	992.075028259178	826.797653617123	567.348621091500	940.236517472666	739.158232205258	632.988147644962	1038.669705206969	709.163436022469	570.042288928042	1076.793082393843	618.967613215836	620.094123002555	1044.342244192798	501.702663242385	591.494689800559	968.357235605293	435.381792307895	671.015048572676	1032.702982145118	362.164840784874	599.621671058765	923.659081703852	134.287646091517	576.421893005763	998.507986116540	100.278869207511	652.494294674724	1102.678050368979	170.944827258510	644.873010167871	1207.124174742868	130.703078171760	648.172050579641	
72	8.027285714286	909.126847999185	1020.006565241629	521.957821337419	925.491261153070	963.304076568329	273.513871760637	984.201932540181	1442.601643029596	409.497423219626	849.346909011928	1511.393639970104	547.886992723056	872.708133001516	1568.881493772808	364.675218657941	979.098481298138	1510.103687605047	208.425605985608	971.525393744626	1182.162793687629	79.311778989876	1122.513030009860	941.034290021258	116.157129190732	720.323695462073	1195.235006258811	659.810567412228	933.983310268010	999.017528304172	656.046392713100	921.966215822606	736.963325407088	284.619990306981	837.068285475990	674.339183942118	246.952725902150	896.849966880289	609.569985750872	312.014853780157	877.385795860750	496.655006679616	321.377397738940	822.000810828330	401.471489260961	347.760185151224	747.555139911032	335.517100786622	274.197386629570	780.103810847773	281.935361215091	363.248305765135	629.022980783733	53.834275127858	376.810619433602	716.770880219587	28.098928428621	317.010546024830	815.373253416037	89.288805172317	358.488076160622	921.380039367600	43.980966245214	364.429824354352	996.840320545387	826.944376313196	566.268372271827	945.678225589658	738.920769481651	632.143603638293	1043.190045228953	709.807378774493	567.399599125321	1082.903657634573	619.744422607595	616.639369066375	1049.791102829895	501.932800629442	588.415929057869	975.449281041150	435.587401720102	669.426766429570	1037.903865679272	362.390479629835	596.356180154358	927.663083810572	134.723300054137	574.957045573472	1004.240921836666	100.544828884753	649.221997783761	1108.273771073445	171.286587453443	639.442704598023	1212.812698294967	131.024950850995	640.324787436859	
73	8.044571428571	910.226597287377	1019.099208855471	522.009760331177	923.294861823083	963.324396896546	273.197669251024	981.836529531839	1442.555437398743	409.452497972911	848.113866099576	1510.811516051975	549.441318012834	869.582832815431	1568.473578576055	366.131730731403	974.130138616178	1510.045973438630	208.394708400900	965.075341676790	1181.824971156319	79.884141579342	1115.709936120696	940.360460974451	116.683042210279	718.606440315158	1195.092908406780	662.005504650308	931.752050238626	998.327548191963	658.444208818072	919.316661421929	736.799623690430	284.038921787992	833.588097518824	674.375578834845	247.054469320854	893.467291117033	609.216317501856	311.224425367182	872.952955580256	496.257747396421	320.507799514121	817.008443490105	401.365767997191	347.355217895500	741.249096544911	336.272881836391	274.296486669471	774.282495752861	282.164977005033	363.008664844169	621.423458097654	54.564729013400	376.936271080133	709.059888808726	28.329861560209	317.195976839474	807.844088682380	89.402279922722	358.301426173850	913.604657999158	43.957458321040	364.339549834369	1000.858528807421	826.552347532107	565.482217804336	950.070947093364	738.110104850742	631.248890398615	1046.789000343824	709.764932702235	565.040961657448	1087.680531143011	619.683120995825	613.366296314994	1054.143057657409	501.530230298926	585.297331395313	981.212049890651	435.000683527417	667.392087285647	1042.158769606887	361.968127512557	592.949834287240	931.230557636859	134.368821567302	572.760316102584	1009.189044132380	100.126887784314	645.560884516088	1112.978018807817	171.029888415446	634.101876467316	1217.612128328019	130.872171649162	633.027035110674	
74	8.061857142857	911.421152538801	1017.995018040532	522.135678113863	921.229008126751	963.302119630499	273.108502399418	979.699336715198	1442.559780465891	409.546189581043	847.267328100537	1510.202517433548	551.232616144842	866.622755623601	1568.065902950959	367.818957186874	969.127652066700	1510.049517160268	208.501546162863	958.143999017736	1181.628575588665	80.396301404870	1108.567856757216	939.896899392615	116.835021240812	717.627639950843	1194.869874369557	664.668445693572	930.126025894198	997.413793417663	660.770424275964	916.689032987448	736.656972786289	283.549029472613	830.278819592652	674.494767597487	247.155584705981	890.220644241744	608.934890138704	310.559969898385	868.613404877356	495.913923218802	319.706114613910	812.116355401184	401.280542417271	346.978356469779	735.045671088936	337.085434702555	274.422548408644	768.519405880280	282.431052942693	362.789019802258	613.844211919224	55.431569139379	377.069230450212	701.355399805402	28.647573594553	317.364675415676	800.337681245933	89.499862258372	358.122987473885	905.826176794202	43.978165436991	364.217000997871	1003.985498254860	825.604380473011	564.861814773925	953.435531809451	736.695866931314	630.299795399644	1049.497763341320	709.012210646747	562.935612053005	1091.158656824524	618.776403868643	610.278701591667	1057.450518362727	500.488637273679	582.149555077830	985.711018234221	433.588210342724	664.941135651302	1045.572213860549	360.888066733142	589.402715830074	934.512469731495	133.185028805842	569.807014414287	1013.522200801508	99.013840844123	641.517655640831	1116.961135345205	170.187305255404	628.859014198321	1221.715161375165	130.282820421777	626.308364582716	
75	8.079142857143	912.607874708366	1016.687148498922	522.236943028233	919.325227429002	963.230593484697	273.263630377909	977.797235111987	1442.573992562957	409.798483249830	846.805057781076	1509.551986663111	553.252592827741	863.845483328806	1567.641390193404	369.725502681052	964.161580269466	1510.069853680449	208.770551691705	950.805737103124	1181.541523197660	80.867295638955	1101.096089840840	939.567565690048	116.577825272858	717.444541480678	1194.559167604355	667.831095604534	929.182658999956	996.305308933514	662.977807501308	914.085342481443	736.507637418668	283.222855051473	827.119047055626	674.673458949368	247.300232274612	887.072639303901	608.712972579340	310.093474855581	864.318187839889	495.612260865600	319.037713569018	807.268323661276	401.221222502104	346.671060436261	728.932249284363	337.939580008787	274.593814713525	762.771912457319	282.743059477943	362.634260329734	606.283573362879	56.428007945915	377.205919214541	693.653490042058	29.063781092268	317.510660254740	792.849934729936	89.597407226719	357.947970029295	898.041989631557	44.029003042029	364.072546365682	1006.153151714288	824.099959493639	564.298057333848	955.842931634803	734.677006277123	629.304853049195	1051.367857834571	707.544160186889	561.038210529900	1093.414574831590	617.045028117964	607.366221185465	1059.784297443317	498.816624009780	578.980040519873	989.048460874957	431.354606112028	662.132828792792	1048.237945219817	359.156256850804	585.720795163001	937.585617277327	131.172196197485	566.138782622265	1017.373820949849	97.196361581503	637.095086442706	1120.367819134773	168.766665091628	623.683906615525	1225.281581896069	129.271304073888	620.084853878461	
76	8.096428571429	913.729047724124	1015.169330915350	522.253430114002	917.626245991780	963.111989705886	273.661433068342	976.134185359332	1442.554716127175	410.226432689031	846.724665076897	1508.841456261341	555.497554832827	861.266167598941	1567.180206190122	371.846199694126	959.296046474866	1510.066105457630	209.226519555684	943.162234959923	1181.536583238629	81.324035252693	1093.306997545675	939.286067109726	115.900332396138	718.081744371345	1194.150276255945	671.497446364460	928.972414165571	995.035661514376	665.037148309288	911.514651047842	736.327531081685	283.106388424317	824.075436502970	674.887380154810	247.524822705424	883.981141721799	608.526087098844	309.857173296547	860.020833154727	495.331924102281	318.546918900780	802.410434401829	401.193838784820	346.461311679848	722.883945170607	338.826042736088	274.820775161675	757.003640639841	283.117621818541	362.583431214334	598.740145649271	57.538050128363	377.340433698208	685.951475213750	29.580180870124	317.629003746079	785.376191637286	89.708202944343	357.769340754367	890.249899462357	44.091051622525	363.920303817915	1007.368635602504	822.053449607978	563.718988593131	957.395306700458	732.072870635384	628.283060859806	1052.455827536740	705.369111782483	559.293264049578	1094.548096717465	614.528699661436	604.602465141405	1061.222116822494	496.532229101945	575.791838800832	991.343982617776	428.332700438091	659.040947131876	1050.231295451055	356.789240879261	581.917417605512	940.465370087164	128.360920582379	561.852230664526	1020.837063257690	94.664389615847	632.300747412473	1123.307702034992	166.769387563170	618.531787346018	1228.426478851594	127.831776915798	614.207269789344	
77	8.113714285714	914.779020726494	1013.437180905673	522.180528696525	916.182832347182	962.955288936155	274.282469656574	974.711995005607	1442.462284907558	410.844033704356	847.019558751848	1508.051180908266	557.964747049927	858.898659177228	1566.659824684639	374.179867761681	954.585391063822	1510.005063735181	209.894384627550	935.332738638133	1181.595726379315	81.798618208553	1085.217452260767	938.968550587303	114.815093955386	719.529688034756	1193.628143755318	675.641246170064	929.519428722288	993.641923400093	666.935164804600	908.986853419673	736.095810156627	283.210256988708	821.108987529291	675.115327686218	247.852303117290	880.907470929451	608.341845616899	309.842961175453	855.683248927821	495.048463058280	318.251486155270	797.501319902963	401.201026266277	346.360953997231	716.869338860829	339.739873952186	275.108264888477	751.188869961319	283.569513486333	362.660565397928	591.213025497256	58.738498145222	377.467753787201	678.248072505758	30.188671621050	317.717543834862	777.911694780660	89.838758492589	357.580572569241	882.448195040110	44.145203756112	363.774444405150	1007.704364472839	819.485618256409	563.088526464455	958.206282884664	728.911146615205	627.257219520544	1052.812663585404	702.500265555752	557.638543013335	1094.662762930988	611.274082210083	601.945892204138	1061.834723690276	493.654587036383	572.583861709695	992.710840727344	424.570052081495	655.739888237720	1051.602288941229	353.806645499278	578.014307363310	943.119576524032	124.799443187441	557.079394009516	1023.959465943930	91.404603042274	627.156198544956	1125.845572842805	164.187938975177	613.370629488603	1231.211474783824	125.941635144887	608.519435194267	
